<?xml version="1.0" encoding="UTF-8" standalone="no"?>
<!-- Created with Inkscape (http://www.inkscape.org/) -->

<svg
   width="75.000008mm"
   height="150mm"
   viewBox="0 0 75.000005 150"
   version="1.1"
   id="svg5"
   xml:space="preserve"
   inkscape:version="1.2 (dc2aedaf03, 2022-05-15)"
   sodipodi:docname="Farmer - Copy.svg"
   xmlns:inkscape="http://www.inkscape.org/namespaces/inkscape"
   xmlns:sodipodi="http://sodipodi.sourceforge.net/DTD/sodipodi-0.dtd"
   xmlns="http://www.w3.org/2000/svg"
   xmlns:svg="http://www.w3.org/2000/svg"><sodipodi:namedview
     id="namedview7"
     pagecolor="#ffffff"
     bordercolor="#666666"
     borderopacity="1.0"
     inkscape:showpageshadow="2"
     inkscape:pageopacity="0.0"
     inkscape:pagecheckerboard="0"
     inkscape:deskcolor="#d1d1d1"
     inkscape:document-units="mm"
     showgrid="false"
     inkscape:zoom="0.71790278"
     inkscape:cx="-62.682582"
     inkscape:cy="288.33988"
     inkscape:window-width="1920"
     inkscape:window-height="1017"
     inkscape:window-x="-8"
     inkscape:window-y="-8"
     inkscape:window-maximized="1"
     inkscape:current-layer="g1640"
     showguides="false" /><defs
     id="defs2"><inkscape:path-effect
       effect="spiro"
       id="path-effect1806"
       is_visible="true"
       lpeversion="1" /><inkscape:path-effect
       effect="spiro"
       id="path-effect8447"
       is_visible="true"
       lpeversion="1" /><inkscape:path-effect
       effect="spiro"
       id="path-effect7278"
       is_visible="true"
       lpeversion="1" /><inkscape:path-effect
       effect="spiro"
       id="path-effect7274"
       is_visible="true"
       lpeversion="1" /><pattern
       id="EMFhbasepattern"
       patternUnits="userSpaceOnUse"
       width="6"
       height="6"
       x="0"
       y="0" /><inkscape:path-effect
       effect="spiro"
       id="path-effect7278-6"
       is_visible="true"
       lpeversion="1" /><inkscape:path-effect
       effect="spiro"
       id="path-effect1806-9"
       is_visible="true"
       lpeversion="1" /></defs><g
     inkscape:label="Layer 1"
     inkscape:groupmode="layer"
     id="layer1"
     transform="translate(-19.790319,-32.209669)"
     style="display:none"
     sodipodi:insensitive="true"><rect
       style="fill:#ffffff;fill-opacity:0.501961;stroke:#008000;stroke-width:2.5322;stroke-linecap:square"
       id="rect2969"
       width="72.467804"
       height="147.4678"
       x="21.056419"
       y="33.475769" /></g><g
     inkscape:groupmode="layer"
     id="g1448"
     inkscape:label="shadow"
     style="display:inline"
     transform="translate(-9.2995969,1.258418)"><path
       id="rect1378"
       style="fill:none;fill-opacity:1;stroke:#000000;stroke-width:5;stroke-linecap:square;stroke-dasharray:none"
       d="M 42.154966,9.303766 A 11.639525,18.833149 0 0 0 36.656077,11.819891 11.639525,18.833149 0 0 0 30.858498,26.99726 H 20.041587 v 2.264978 h 11.398788 a 12.281818,12.281818 0 0 0 -1.246436,5.385717 12.281818,12.281818 0 0 0 6.513815,10.833448 v 3.581176 h -1.26659 c 5.7e-4,0.05372 -8.09e-4,0.107504 -5.17e-4,0.161231 h -4.53564 c -0.0281,0 -0.05575,0.0024 -0.08372,0.0031 a 4.571883,4.571883 0 0 0 -2.724898,0.852145 c -3.09679,2.216209 -5.855488,4.887517 -8.168494,7.912695 -7.229241,9.455116 -9.642669,22.075595 -6.534485,33.514233 a 5.1095204,5.1095204 0 0 0 -0.07183,0.839226 5.1095204,5.1095204 0 0 0 5.109249,5.109249 5.1095204,5.1095204 0 0 0 5.109766,-5.109249 5.1095204,5.1095204 0 0 0 -1.388546,-3.500562 C 20.061029,80.724563 21.672378,71.493682 26.42724,64.598582 v 2.491321 22.072554 0.389124 10.062435 34.453194 c 0,1.37845 0.991017,2.51624 2.302185,2.74453 v 2.08876 h -6.998018 c -1.596451,0 -2.881478,1.24291 -2.881478,2.78691 v 1.82056 c 0,1.54401 1.285027,2.78691 2.881478,2.78691 h 13.996045 c 1.596449,0 2.881478,-1.2429 2.881478,-2.78691 v -1.82056 c 0,-1.05036 -0.595007,-1.96083 -1.477946,-2.43602 v -2.43965 c 1.311059,-0.22838 2.302185,-1.36616 2.302185,-2.74453 v -32.01148 a 3.4673768,3.8256393 0 0 1 1.308964,-1.48312 3.4673768,3.8256393 0 0 1 3.467488,0 3.4673768,3.8256393 0 0 1 1.308964,1.47898 v 32.01562 c 0,1.37845 0.991018,2.51624 2.302185,2.74453 v 2.43965 c -0.883108,0.47514 -1.478462,1.38553 -1.478462,2.43602 v 1.82056 c 0,1.54401 1.285544,2.78691 2.881994,2.78691 h 13.996045 c 1.596451,0 2.881478,-1.2429 2.881478,-2.78691 v -1.82056 c 0,-1.544 -1.285027,-2.78691 -2.881478,-2.78691 h -6.998022 v -2.08876 c 1.31106,-0.22838 2.302185,-1.36616 2.302185,-2.74453 v -42.647009 -2.78691 -12.62507 c 1.830115,3.120681 4.446228,5.633029 8.123535,7.553545 a 5.1095204,5.1095204 0 0 0 3.060278,1.842781 v 58.727163 c 0,0.59906 0.48201,1.08159 1.081071,1.08159 h 1.370976 c 0.599061,0 1.081071,-0.48253 1.081071,-1.08159 V 84.787531 A 5.1095204,5.1095204 0 0 0 75.759117,80.385732 5.1095204,5.1095204 0 0 0 73.241441,75.9829 V 54.656036 h 0.129708 v -2.262911 h 7.327718 c 0.01489,0 0.02923,-0.0011 0.04393,-0.0015 0.0076,2.42e-4 0.01509,0.0015 0.02274,0.0015 0.05353,0 0.105655,-0.0062 0.156063,-0.01757 0.356111,-0.05502 0.617017,-0.238035 0.617017,-0.457336 0,-0.04574 -0.01192,-0.08998 -0.03307,-0.131775 0.02143,-0.07864 0.03307,-0.161987 0.03307,-0.248564 V 32.90801 c 0,-0.47372 -0.344864,-0.854728 -0.77308,-0.854728 -0.428214,0 -0.773079,0.381008 -0.773079,0.854728 V 51.443313 H 75.344672 V 32.90801 c 0,-0.47372 -0.344864,-0.854728 -0.77308,-0.854728 -0.428214,0 -0.773079,0.381008 -0.773079,0.854728 V 51.443313 H 69.150735 V 32.90801 c 0,-0.47372 -0.344349,-0.854728 -0.772563,-0.854728 -0.428216,0 -0.77308,0.381008 -0.77308,0.854728 V 51.443313 H 62.957314 V 32.90801 c 0,-0.47372 -0.344865,-0.854728 -0.773079,-0.854728 -0.428216,0 -0.77308,0.381008 -0.77308,0.854728 v 18.62987 c 0,0.473721 0.344864,0.855245 0.77308,0.855245 0.03072,0 0.06067,-0.0029 0.09043,-0.0067 0.04293,0.0038 0.08691,0.0067 0.131775,0.0067 h 7.172172 v 2.262911 H 69.70832 V 74.951955 C 67.733063,73.917147 67.198156,73.030167 66.031028,70.676247 64.456159,67.49997 62.508037,61.541825 57.826878,51.813316 A 4.571883,4.571883 0 0 0 55.714862,49.691482 C 55.199601,49.390886 54.637209,49.22381 54.046747,49.22381 h -4.536674 c 2.93e-4,-0.05373 -5.71e-4,-0.107509 0,-0.161231 H 48.244 V 45.481403 A 12.281818,12.281818 0 0 0 54.757815,34.647955 12.281818,12.281818 0 0 0 53.512929,29.262238 H 64.910166 V 26.99726 H 54.093772 A 11.639525,18.833149 0 0 0 48.295677,11.819891 11.639525,18.833149 0 0 0 42.154966,9.303766 Z" /></g><g
     inkscape:groupmode="layer"
     id="g1640"
     inkscape:label="Layer 2"
     style="display:inline"
     transform="translate(-9.2995969,1.258418)"><g
       id="g1712"
       transform="translate(0.82993293,4.0540541)"><g
         id="g1574"
         inkscape:label="head"
         transform="matrix(1.1571985,0,0,1.1571985,-3.0625947,-18.444005)"><rect
           style="opacity:1;fill:#ffcc00;fill-opacity:1;stroke:none;stroke-width:2.63388;stroke-linecap:square"
           id="rect1570"
           width="9.9690962"
           height="9.1902609"
           x="33.650558"
           y="50.377213" /><circle
           style="opacity:1;fill:#ffcc00;fill-opacity:1;stroke:none;stroke-width:3.14848;stroke-linecap:square"
           id="circle1572"
           cx="38.635105"
           cy="42.37645"
           r="10.613407" /></g><g
         id="g1580"
         inkscape:label="leftArm"
         style="display:inline"
         transform="matrix(1.1571985,0,0,1.1571985,-3.0625947,-18.626936)"><path
           style="color:#000000;fill:#ff0000;stroke-linecap:round;stroke-linejoin:round;-inkscape-stroke:none"
           d="m 29.154297,55.183594 a 3.95082,3.95082 0 0 0 -2.945313,0.685547 c -2.676115,1.915154 -5.059792,4.223659 -7.058593,6.83789 -6.673293,8.727992 -8.59884,20.577264 -5.03125,30.96875 a 3.95082,3.95082 0 0 0 5.019531,2.455078 3.95082,3.95082 0 0 0 2.455078,-5.019531 c -2.665034,-7.762568 -1.151047,-17.085552 3.833984,-23.605469 1.520405,-1.988536 3.343296,-3.754158 5.378907,-5.210937 a 3.95082,3.95082 0 0 0 0.914062,-5.513672 3.95082,3.95082 0 0 0 -2.566406,-1.597656 z"
           id="path1576" /><circle
           style="display:inline;fill:#ffcc00;fill-opacity:1;stroke:none;stroke-width:8.83079;stroke-linecap:square;stroke-linejoin:round;stroke-dasharray:none;stroke-opacity:1"
           id="circle1578"
           cx="17.856539"
           cy="92.393829"
           r="4.4154224" /></g><g
         id="g1588"
         inkscape:label="rightArm"
         style="display:inline"
         transform="matrix(1.1571985,0,0,1.1571985,9.3212993,-18.870209)"><path
           style="display:none;fill:none;stroke:#ff0000;stroke-width:7.90164;stroke-linecap:round;stroke-linejoin:round;stroke-dasharray:none;stroke-opacity:1"
           d="m 37.638536,59.29147 c 7.909778,16.438308 6.170487,19.482501 14.641693,22.978013"
           id="path1582"
           sodipodi:nodetypes="cc" /><path
           style="color:#000000;fill:#ff0000;stroke-linecap:round;stroke-linejoin:round;-inkscape-stroke:none"
           d="m 38.945312,55.5625 a 3.95082,3.95082 0 0 0 -3.019531,0.167969 3.95082,3.95082 0 0 0 -1.847656,5.273437 c 3.864509,8.031325 5.266199,12.624026 7.130859,16.384766 1.864661,3.76074 4.866901,6.594831 9.564453,8.533203 a 3.95082,3.95082 0 0 0 5.158204,-2.144531 3.95082,3.95082 0 0 0 -2.144532,-5.160157 C 50.013464,77.060051 49.649999,76.623711 48.289062,73.878906 46.928126,71.134102 45.244479,65.985092 41.199219,57.578125 A 3.95082,3.95082 0 0 0 38.945312,55.5625 Z"
           id="path1584" /><circle
           style="opacity:1;fill:#ffcc00;fill-opacity:1;stroke:none;stroke-width:8.83079;stroke-linecap:square;stroke-linejoin:round;stroke-dasharray:none;stroke-opacity:1"
           id="circle1586"
           cx="52.280228"
           cy="82.269485"
           r="4.4154224" /></g><g
         id="g1594"
         inkscape:label="torso"
         transform="matrix(1.1571985,0,0,1.1571985,-3.0625947,-18.444005)"><path
           id="path1590"
           style="opacity:1;fill:#ff0000;stroke-width:2.77409;stroke-linecap:square"
           d="m 29.16915,54.972347 h 19.551222 c 2.095959,0 3.783321,2.520007 3.783321,5.650239 v 29.198973 c 0,3.130232 -1.687362,5.650239 -3.783321,5.650239 H 29.16915 c -2.095959,0 -3.783321,-2.520007 -3.783321,-5.650239 V 60.622586 c 0,-3.130232 1.687362,-5.650239 3.783321,-5.650239 z"
           sodipodi:nodetypes="sssssssss" /><path
           id="path1592"
           style="display:inline;fill:#0000ff;fill-opacity:1;stroke:none;stroke-width:4.36763;stroke-linecap:square"
           d="m 34.611183,45.008594 c 0.0434,4.088412 -0.71767,8.19523 -2.12442,11.397167 -1.48667,3.383883 -3.67989,5.726459 -6.03529,6.446318 -0.28249,0.08633 -0.56792,0.14944 -0.85421,0.183653 v 22.072484 h 32.09726 V 63.035732 c -0.28648,-0.0342 -0.57209,-0.09725 -0.85473,-0.183653 -2.3554,-0.719855 -4.54809,-3.062443 -6.03477,-6.446318 -1.40674,-3.201933 -2.16839,-7.308767 -2.12494,-11.397167 h -2.53421 v 6.651951 c 0,4.333378 -2.00698,7.821949 -4.49998,7.821949 -2.493,0 -4.49999,-3.488571 -4.49999,-7.821949 v -6.651951 z"
           transform="matrix(0.86415601,0,0,0.86415601,2.6465596,15.938498)" /></g><g
         id="g1604"
         style="display:inline"
         transform="matrix(-1.0159742,0,0,1.0159742,80.814617,2.1548629)"
         inkscape:label="shoes"><rect
           style="display:inline;opacity:1;fill:#803300;fill-opacity:1;stroke:none;stroke-width:7.17952;stroke-linecap:square;stroke-linejoin:round;stroke-dasharray:none;stroke-opacity:1"
           id="rect1596"
           width="8.2692204"
           height="13.765817"
           x="65.856903"
           y="120.24144"
           transform="translate(-40.834227,1.4669458)" /><rect
           style="display:inline;opacity:1;fill:#803300;fill-opacity:1;stroke:none;stroke-width:10.2762;stroke-linecap:square;stroke-linejoin:round;stroke-dasharray:none;stroke-opacity:1"
           id="rect1598"
           width="19.448647"
           height="7.277873"
           x="56.132584"
           y="129.13843"
           rx="2.836376"
           ry="2.7431908"
           transform="translate(-40.834227,1.4669458)" /><rect
           style="display:inline;opacity:1;fill:#803300;fill-opacity:1;stroke:none;stroke-width:7.17952;stroke-linecap:square;stroke-linejoin:round;stroke-dasharray:none;stroke-opacity:1"
           id="rect1600"
           width="8.2692204"
           height="13.765817"
           x="65.856903"
           y="120.24144"
           transform="matrix(-1,0,0,1,117.93998,1.4669458)" /><rect
           style="display:inline;opacity:1;fill:#803300;fill-opacity:1;stroke:none;stroke-width:10.2762;stroke-linecap:square;stroke-linejoin:round;stroke-dasharray:none;stroke-opacity:1"
           id="rect1602"
           width="19.448647"
           height="7.277873"
           x="56.132584"
           y="129.13843"
           rx="2.836376"
           ry="2.7431908"
           transform="matrix(-1,0,0,1,117.93998,1.4669458)" /></g><g
         id="g1614"
         transform="matrix(1.0159742,0,0,1.0159742,-39.092894,3.645242)"
         inkscape:label="pants"><rect
           style="opacity:1;fill:#0000ff;fill-opacity:1;stroke:none;stroke-width:7.12338;stroke-linecap:square;stroke-linejoin:round;stroke-dasharray:none;stroke-opacity:1"
           id="rect1606"
           width="31.592743"
           height="10.8081"
           x="63.672962"
           y="79.661285" /><rect
           style="opacity:1;fill:#0000ff;fill-opacity:1;stroke:none;stroke-width:2.67632;stroke-linecap:square"
           id="rect1608"
           width="12.801557"
           height="47.463066"
           x="63.672962"
           y="79.661285"
           rx="2.7431908"
           ry="2.7431908" /><rect
           style="opacity:1;fill:#0000ff;fill-opacity:1;stroke:none;stroke-width:2.67632;stroke-linecap:square"
           id="rect1610"
           width="12.801557"
           height="47.463066"
           x="82.464142"
           y="79.661285"
           rx="2.7431908"
           ry="2.7431908" /><path
           id="path1612"
           style="display:inline;opacity:1;fill:#0000ff;fill-opacity:1;stroke:none;stroke-width:7.67683;stroke-linecap:square;stroke-linejoin:round;stroke-dasharray:none;stroke-opacity:1"
           d="m 73.636923,88.154733 v 6.519519 h 2.419661 a 3.4128591,3.7654886 0 0 1 1.706271,-3.261389 3.4128591,3.7654886 0 0 1 3.412953,0 3.4128591,3.7654886 0 0 1 1.706271,3.261389 h 2.419661 v -6.519519 z" /></g><g
         id="g1620"
         transform="matrix(1.1571985,0,0,1.1571985,67.895938,-0.79698284)"
         inkscape:label="hat"><rect
           style="opacity:1;fill:#aa4400;fill-opacity:1;stroke:none;stroke-width:8.22956;stroke-linecap:square;stroke-linejoin:round;stroke-dasharray:none;stroke-opacity:1"
           id="rect1616"
           width="38.773376"
           height="1.9571744"
           x="-42.070827"
           y="20.515234" /><path
           style="opacity:1;fill:#aa4400;fill-opacity:1;stroke:none;stroke-width:8.22956;stroke-linecap:square;stroke-linejoin:round;stroke-dasharray:none;stroke-opacity:1"
           id="path1618"
           sodipodi:type="arc"
           sodipodi:cx="-22.684137"
           sodipodi:cy="-21.493822"
           sodipodi:rx="10.058366"
           sodipodi:ry="16.274778"
           sodipodi:start="0"
           sodipodi:end="3.1415927"
           sodipodi:arc-type="slice"
           d="m -12.625772,-21.493822 a 10.058366,16.274778 0 0 1 -5.029183,14.0943715 10.058366,16.274778 0 0 1 -10.058366,-3e-7 10.058366,16.274778 0 0 1 -5.029182,-14.0943712 h 10.058366 z"
           transform="scale(1,-1)" /></g><g
         id="g1638"
         transform="translate(-16.010455,17.886202)"
         inkscape:label="pitchfork"
         style="display:inline"><rect
           style="fill:#803300;stroke-width:12.4171;stroke-linecap:square;stroke-linejoin:round"
           id="rect1622"
           width="3.5335002"
           height="92.112419"
           x="84.888611"
           y="31.160372"
           ry="1.0813404" /><g
           id="g1636"
           transform="matrix(1.7603505,0,0,1.0813405,-151.319,1.2416645)"><rect
             style="fill:#808080;stroke-width:8.45453;stroke-linecap:square;stroke-linejoin:round"
             id="rect1624"
             width="0.87818098"
             height="18.809877"
             x="129.59442"
             y="6.3981757"
             ry="0.79076988"
             class="UnoptimicedTransforms"
             transform="translate(-0.12545443,1.8057593)" /><rect
             style="display:inline;fill:#808080;stroke-width:8.45453;stroke-linecap:square;stroke-linejoin:round"
             id="rect1626"
             width="0.87818098"
             height="18.809877"
             x="129.59442"
             y="6.3981757"
             ry="0.79076988"
             class="UnoptimicedTransforms"
             transform="translate(3.3930204,1.8057561)" /><rect
             style="display:inline;fill:#808080;stroke-width:8.45453;stroke-linecap:square;stroke-linejoin:round"
             id="rect1628"
             width="0.87818098"
             height="18.809877"
             x="129.59442"
             y="6.3981757"
             ry="0.79076988"
             class="UnoptimicedTransforms"
             transform="translate(6.9114952,1.8057561)" /><rect
             style="display:inline;fill:#808080;stroke-width:8.45453;stroke-linecap:square;stroke-linejoin:round"
             id="rect1630"
             width="0.87818098"
             height="18.809877"
             x="129.59442"
             y="6.3981757"
             ry="0.79076988"
             class="UnoptimicedTransforms"
             transform="translate(10.42997,1.8057516)" /><rect
             style="display:inline;fill:#808080;stroke-width:8.45453;stroke-linecap:square;stroke-linejoin:round"
             id="rect1632"
             width="0.87818098"
             height="18.809877"
             x="129.59442"
             y="6.3981757"
             ry="0.79076988"
             class="UnoptimicedTransforms"
             transform="matrix(0,1,-0.60315859,0,144.76168,-103.45879)" /><rect
             style="fill:#808080;stroke-width:8.99999;stroke-linecap:square;stroke-linejoin:round"
             id="rect1634"
             width="2.154202"
             height="2.8768938"
             x="134.10867"
             y="26.229719"
             ry="2.3841858e-07" /></g></g></g></g></svg>
